<mxfile host="app.diagrams.net" modified="2021-12-08T04:50:07.623Z" agent="5.0 (X11; Linux x86_64) AppleWebKit/537.36 (KHTML, like Gecko) Chrome/83.0.4103.106 Safari/537.36" etag="ewZ0SsA72A0xFVq3ouaP" version="15.5.9" type="github">
  <diagram id="xm6FbZMcis4gtxL3EUVj" name="Page-1">
    <mxGraphModel dx="1350" dy="725" grid="1" gridSize="10" guides="1" tooltips="1" connect="1" arrows="1" fold="1" page="1" pageScale="1" pageWidth="850" pageHeight="1100" math="0" shadow="0">
      <root>
        <mxCell id="0" />
        <mxCell id="1" parent="0" />
        <mxCell id="8wQrLvHrDY75lWzlRCcC-1" value="" style="rounded=0;whiteSpace=wrap;html=1;strokeWidth=1;fillColor=none;align=right;verticalAlign=middle;dashed=1;" vertex="1" parent="1">
          <mxGeometry x="130" y="40" width="520.25" height="270" as="geometry" />
        </mxCell>
        <mxCell id="8wQrLvHrDY75lWzlRCcC-2" value="Node 1" style="rounded=0;whiteSpace=wrap;html=1;align=left;verticalAlign=top;" vertex="1" parent="1">
          <mxGeometry x="160.25" y="60" width="210" height="190" as="geometry" />
        </mxCell>
        <mxCell id="8wQrLvHrDY75lWzlRCcC-3" value="Node 2" style="rounded=0;whiteSpace=wrap;html=1;align=right;verticalAlign=top;" vertex="1" parent="1">
          <mxGeometry x="400.25" y="60" width="220" height="190" as="geometry" />
        </mxCell>
        <mxCell id="8wQrLvHrDY75lWzlRCcC-4" value="" style="rounded=1;whiteSpace=wrap;html=1;strokeColor=default;align=center;dashed=1;dashPattern=1 2;" vertex="1" parent="1">
          <mxGeometry x="220.25" y="70" width="139" height="80" as="geometry" />
        </mxCell>
        <mxCell id="8wQrLvHrDY75lWzlRCcC-5" value="ens0" style="rounded=0;whiteSpace=wrap;html=1;strokeColor=#d79b00;align=center;rotation=0;fillColor=#ffe6cc;" vertex="1" parent="1">
          <mxGeometry x="262.75" y="225" width="60" height="25" as="geometry" />
        </mxCell>
        <mxCell id="8wQrLvHrDY75lWzlRCcC-6" value="sidecar/app" style="rounded=0;whiteSpace=wrap;html=1;strokeColor=#82b366;align=center;fillColor=#d5e8d4;" vertex="1" parent="1">
          <mxGeometry x="260" y="95" width="70" height="20" as="geometry" />
        </mxCell>
        <mxCell id="8wQrLvHrDY75lWzlRCcC-7" style="edgeStyle=orthogonalEdgeStyle;rounded=0;orthogonalLoop=1;jettySize=auto;html=1;exitX=0.5;exitY=1;exitDx=0;exitDy=0;entryX=0.5;entryY=0;entryDx=0;entryDy=0;startArrow=none;startFill=0;endArrow=none;endFill=0;" edge="1" parent="1" source="8wQrLvHrDY75lWzlRCcC-8" target="8wQrLvHrDY75lWzlRCcC-9">
          <mxGeometry relative="1" as="geometry" />
        </mxCell>
        <mxCell id="8wQrLvHrDY75lWzlRCcC-8" value="eth0" style="rounded=0;whiteSpace=wrap;html=1;fillColor=#ffe6cc;strokeColor=#d79b00;shadow=0;" vertex="1" parent="1">
          <mxGeometry x="255.5" y="130" width="75" height="20" as="geometry" />
        </mxCell>
        <mxCell id="8wQrLvHrDY75lWzlRCcC-9" value="veth0" style="rounded=0;whiteSpace=wrap;html=1;shadow=0;strokeColor=#d79b00;align=center;fillColor=#ffe6cc;" vertex="1" parent="1">
          <mxGeometry x="255.5" y="150" width="74.75" height="20" as="geometry" />
        </mxCell>
        <mxCell id="8wQrLvHrDY75lWzlRCcC-10" value="Pod 1" style="text;html=1;strokeColor=none;fillColor=none;align=center;verticalAlign=middle;whiteSpace=wrap;rounded=0;shadow=0;" vertex="1" parent="1">
          <mxGeometry x="213.25" y="65" width="60" height="30" as="geometry" />
        </mxCell>
        <mxCell id="8wQrLvHrDY75lWzlRCcC-11" value="" style="shape=image;verticalLabelPosition=bottom;labelBackgroundColor=#ffffff;verticalAlign=top;aspect=fixed;imageAspect=0;image=data:image/png,iVBORw0KGgoAAAANSUhEUgAAAOEAAADhCAMAAAAJbSJIAAAAz1BMVEX///8AO0nX1tYAsa3z8/P7+/usq6v39/cAq6cArqoALj4AOEcANEPm5eWhoKCZp6wbR1TAv8CgrLFddX0AJTfn7O3GxsYAtrJSwLw0vbgALz8AHzPw+vrj4+MTurZDv7qFy8Xk9fV1x8Ka0coAKTu95uXp9/eU19WG1dOAycOo3t1ew75sxcHN7Ou04+HU7+61tLSTkpKf2teQn6XR0NG8xsk6W2YAECrEzdBvhItZcnsoT1tBYGpyzst80s6k19OLiYqwu799kJZ3ipEAACBFzAQBAAAPxElEQVR4nO1dC1vaTBMNl4hcvBaEcAsggsrNFmu1Vfvafv//N307M5tkN9kkSDEbfHKePgphs5mzO3tm9kI1jAwZMmTIkCFDhgxboVQyTd02fCBM4Fc8KpZ0G/JRKHFmvV7xc/ajR6uYb3xCimYRfnZfb/FN/qj02TgSoaty+bDVhVdH+c/lqdSBxsthoVAoFxbwusS6UatNOwVJzLBZLiAOr/HqJxIcIvINOrBQBpZlawhXGp/EU7nEtNBD+0NO9BMJjisxjnuSsx7O8PrR/nsqScyrIDGy4BT3XHBEieFhAiD06J4LjiQxt8IHXRu70ZrAm/0VHFFiZIIM008gOOShi0KZYgT3SRcrLjj4Zi8FR5SY8oL95j7pYb8Fh0tM35UYJi7l8lIutM+CQ8be4lg7/IaXujbz1Be52N4KjpTFNIfOZSYuwjv3GitziJ27P4IjSozUawuvR12sqNgc3+yJp5LEXJPEXMmfNWFU+kjMSXBWeG++kXrBMUliLOwZuyt91m2VC2UveXOwJMGZ4pvUd6NCYlyA35ZvWRjkZFxMbIyZ9h4IDkmMOSOJWckfTnlIZF5Z9nUuFxyKJqUUC06oxBikrPzashwcoPshOFESgx7qBPyJFQyNXHCaXHDSmOGQxEyUEoMe2heStmt47wuNaRccGjpLkhifkgge6gD69NA33ZBaJ22rjXy1UC0xkoc6gISNTyw8vJY9D0+X4JDErJQS42qoH3C9IDXGFYZ+t4oUeSoZci0ovgeFhzqAFhEdGgZnSxacdGQ4XGJ41PZJjNJDXTCvdkUJ5x5sInVb9oaymYpu5BIjCqEH9NCh4i4OlvzwYYfzR3yVMsHhEiNmzx4iPNQBJLDQc+ChltP/YkjVLTiSxMx9H64iPdQBrG/YLXkdZ5EawaFH07LZoZ+LasKrwhVt10hJkJPa4u36BIckpmvTjpKPywYe6gCiYNkfGrng4PTEzPe0eKq4IVH2qyhGglgPBUALlcvBQcynmPr2U0WJKZSnrhISpoq8U40F3okN4ptOahYcU5AYGC44XXh1PtzcQ695woO3tBTBtOBUm7DgEEEuMXPXVuq2zTQUgFGetwuERv/6hrRcl0+UYslwJcbdkKBFCtyI2UhDHQ913sEOlX/pnwtOGRzYPOslKKnsURN6tsCF5HP2bg918aLI0fmyOdR4cZ/cKRw4mjZFhjKXbyiLhXd7qIMrd3VYwDUOBTZE7896iTEEWbsOxmnWCxDaXtU3yWA+HVjqMK7LQQef2C7Du+Tc1GMoRWqzRaHNr4kKBDzU4L3qT/2uaDBASn93l9fAsFDwZvQU5ZcKTfRDtUuDuYN/YYNm/eQq5tcEpYYzbDbhX5lPmRwNnVgKTZSwgI4OeKhCgocWPoB84u744ijpcWh1bWZBs4AJGwgpdzHVdqgA1bKG0kNvsRHLlOvcfb1LMHUjhk0LFBUoFijtcl0MHS5EUVUaqvRQc4Z193EUHH09vrtPrgsFhsaqid0oR0Z1lyAwL9jEQxdUMY3WCySYZMD3GLIIAZY0Cy25CM4OV4E7IdGzN/HQa+4c+LjjrwdnyU4SkWGTMzSWSLHpW6NRTheG0IO+iyoPnVjeADfy0IEJT/RlhrI9HiB/82+H0kWxoMpDqc0K1GZ30IFJz518DNFlwSTf+FJNF3wXlR46K3gS0zg+vrvoJX66P8CQ6ULT0wUXyukC5NLOxYXCQ1diVRcaPBQQZMgbvtn3icuLuEooXQS5UXnolEY1ScwBeeiu7Y+HiiGLz9j2QR0JZth0ET3UtwIl5hBG7yt6qK5FqABDJjhNheAoc1Bafgp6qH6J4VAzdASn6esylS/S9NJ/9UXw9OLx8cFFXtcXiMIYOoLjS8oU26HdFs4ZpIurviAx95okhiOUIUsmm/1+v+lbScT1DXHE4ewCL3oUpqz3GEc6AHZAWYy25fxwhkxw+kCx6ROcb9J2KPhtYSiFxq6NTdPCjC6vT2I4iGFfybBr95Gjb6I/9E4KeRrqXbyCDmR3uTOle81bTuEMl2gpeqovm3nh26HSqHyh40Mv7l3UML0zzVujnKEd/ARNbVpkrU9w8KTQYkoe6l1kQ9IiD6VuTMe2ITDsBxmuiNmLIzi+7V9Y3yj7o3yXiPWZxKzEhtG7wR3CcCp0wi299kX0OYuC/rgxw4I0aXwRGkbrOQVgOPUzpM5wFWZIrjcTO+I2uIt2Rf3mTC6XQsPo2jYEqBheMeWx+uI8+BqvCIIzCx4SojKWx3piswtWc6b5nAIxtESGr01LNpVh0Udr+UxpGJz0D4mOnLVOsaa++zVMbXmpxHBlKUzFMQbW4hi7DRyBYmPVgo/9i3K8Mq1fUkCGluUuPn3ro6n+SZIBGQ4nEfRQTr8VXFg1X6hhNAqOzJCbOlPuVgxtCzkGPHRB1/1njAjLvte7Wr6kIDFkptq21fcvq7m4Zu7MCvhmSnjVsoLrjYRJCyt9oa9hJi84xNBGr7tG++0wUw3eBLYlNsGwhZdeIgyf9qGEpUlw4HHfkCFzQjAkesvQfMFCM3fELeG9bUXvpK6oaj1nhpGhzRhyUxUSI0MqR4TtWfjejREsV0zWUx2Gr3ar1bLVEiNjOIOiFkSAlc1eyk4bhiUVdQXn36x+D4hha3NTDRi30Bqt1Tf8HTVuBUywYexX6L5GggcViGGLsJmpDAswtkU/Xje2dYo3tECIz/LFrazdBh7D63c0a3dE1rbsjQ5rcKzoHvbqPuE9YGSo3CIMxxIpxkqMjAU2StJnMUogGGjtRoefXDDBsdVZTChu6Tns1VmCZzHwYCJr29nsfR7HsIyNLBK6c/aQWWsEcn2cYB+aOCC6I+/pHwRsxVkLWzF/nOCZKKPYw1+38PxZK+b0zPaYIj8aCUdfD5IMF+bRPSr3cIYU3zm0NoRU+cXXg4skzyYapaOLPL7AZp7N3yc4G0F0ENhITHgR3Cwd3V/gAxeM33zWep+AxKM7YvXOZjfuWYXkV/lLjfzZEbdlzjgOdvp83m4k1LCRqGOV3yz2Lu7x1S1SnG2cv8VjijWS7zf0bSQyT81fkODM0aLfO6qYV0cpva6zCgToRoob1Oij9+VjIVhCXfMZSoz2jUSz6AkOmvXvgtMd0LDWfVbBhSc4N0hx+o/WrOZYDUnMmcazCh48wVnOR6PRfP5PgvMb6xjRSqnWswoCBMEZoX3bC86EKiCJ0XxWQYInOJdo4c2WgnMFd4/mgsRo91AHguCQkdsIjjnF5kmPxMjwBGcAFEeX77ZthffNPYnRfFYhAPBUesUE5+ZmNHpnLv57BHfdcIlheXZKvqkuwCz1+KshGHszes/kfzLAW0ij0iQxMlybzEu0d7Dx5P8Kyt+M0igxEgSjFoLJsZAaJH0SI0Bs9u7gZjBgbreBpasbLCpKTEoJGrJjLUcDZvggVnCoXKolxoVv6AyhbwYxgjOBvh7c8DTov7RKDIdfHMzfaP1lhOAsoMTgho9XU/uBvRgEbZMJBOBvAvM40a/6vh+K1p9cDgQn9GE4wA+9DM9M8vt320DpX0ukoRKcqxv/J/vJkPfUwJ+Ld7F3B1I42VOGbLQNLi8vB7LgLAbs4mAgj9B9ZQh0gOLAm/wrSe8zQxAcYOSExiG9DUwi95ghCM4lACf/V/Q6KD57zZD1G4ANvO5vfKXKWPebIRt7xAx/XiqTgD1nyATn0oU6kdt7hkxwCGHrVPvPkImMWmI4PgNDJjjL8FKfgmEkMobakTGMRcZQOzKGscgYakfGMBYZQ+3IGMYiY6gdGcNYZAy1I2MYi4yhdmQMY6GToWmW4vHP39mB/0e3GP8c8wNaAWrdAP/8nI2eUmrs/mB7cl9O3Qw7/+p66g6AmLv+jldIFzYe307W6/X59wS/Fchxd7/bTlQwNL8/5erjcaXdblfG9fHDuhcsI+Dx5OQkuoRRZEVO8jGWnLMyb+z3rjU3wLDxpzKuVXMequ3Ow1tEDSedyjgX7ViNH5VK5yTGkty4Uv/Jfh+ffSjD0t9O22HG4Lwcnz6G1nBSyeVqz5EPadRzucp5jCWn1Vzti/HRDN/axK9Wqddzvx5+1TrjNtKsdp7CagCGufE66iHpYfjUATrVyvjnGx9Zpcf1r3oNOLZPG+oakGGu8z3iIalh+Iy2Vmoncsf2njo1JK6mSAxz45AGAKSF4QN4aLX+R2Hhcz18rHGG1dPwh6SE4TMQrOXUwn9er1ZCQicyZN7d/hL6kHQw/DOGwfYQVnmvE6amwLD6wCjWQzmkguFjB3rwIb5gAMBw3IBe7IQF9VQwhNhXPd2mamBYL+U7EEHDcsAUMFzDYKrHJF9qIMMiG6nhPpAChiUYhOM4G9TgDI0n8FaFEBupYAhdWP21XQ0OQ+MXDEVlBpsChjAK6+GpZyRchg1whLoq8Otn+Fjfvgs9hqjHSrXSz/BvbQMLwuAxNNasF9s/g0X0M8Rgtu2CjcDQ+Mmaqh6cCGpn2ADvigj20RAZmthWgQGtneF3cK7ICV4URIZGD0Z02+8O2hmesJx7HDW/i4TE0HjrKAK/doZPtW3zGYDMEAN/5a9cRDtD0Ifx1ouUPobGA7SXHPi1M4SpT23rGvwMixVQG8kltDNk6VY1t3UNfoYU+HOilZ+NobGGaYYY+LUzfIY1iK1rDTI0frbl9UXtDL/UAja+AwqG/sCvneGf9g6jBQICv7C+qJ3hOcxdo7YmIqFiiIHfm61oZ/jIsraaena+AZQMjb+szoqzE6CdYQmSya3FVM2QAj9npZ0hhvzOtgMxhGGx7a0v6me4ZlLT3tZNQxgatL6IyaB+hj1cDt6y3jCGxom72aGfIbppJW6TNgShDI0vbb6+mAKG3zF+bTe9CGcIRuPGYgoYoi218M2jKEQwdNYX08AQO7G+VdSPYGh8x/XFVDDEWXD45lEUohjinl37SykNDDF8VcfhFEP7N5Kh8QzrB382WY/98B1S3ECshi5IrX/8DfkkmmEJzuaAf+hnaJx38EyFMvA3nsehpy2iGRr5Op3JSQFDY40UK4rDQesxjtLwsxhRs8vzemoYsl7E4zT1X2/i1d6fMZ62qIecGYpjiOuLKWFoPNbadMhr/Lx+y/d6vce3v6d1utYJWxSPZYgbiylhaJToVBSszI/rDOMKP8Q3Pg1V2XiGjXE1NQyZMDzjASgJ1XFUzhrPEHU6NQwZx6dKve0dS6xVOr/Oox65/lGv/y9mHYuV+RGX2Nc69U4Cpy8Jj+vnHHppvXL6dB5xYA2AJ/3jHgOn8OOLYJlEGOIDG0xpEvy7IS52zjBt32Mp7voUtHm0y9p2gINd/8UZs3GfTxEujo93/vfJSkf3dwfpwd1ZfteD3ywd9XT3nIiP+G9qzVIxPYiPKhkyZMiQIcPm+D8Zv+2zC+rfoQAAAABJRU5ErkJggg==;imageBackground=#FFB570;imageBorder=default;strokeWidth=1;" vertex="1" parent="1">
          <mxGeometry x="276.63" y="195" width="26.25" height="26.25" as="geometry" />
        </mxCell>
        <mxCell id="8wQrLvHrDY75lWzlRCcC-12" value="bridge" style="rounded=0;whiteSpace=wrap;html=1;strokeColor=#d79b00;fillColor=#FFB570;" vertex="1" parent="1">
          <mxGeometry x="169" y="170" width="181.5" height="20" as="geometry" />
        </mxCell>
        <mxCell id="8wQrLvHrDY75lWzlRCcC-13" value="" style="rounded=1;whiteSpace=wrap;html=1;strokeColor=default;align=center;dashed=1;dashPattern=1 2;" vertex="1" parent="1">
          <mxGeometry x="426.5" y="70" width="139" height="80" as="geometry" />
        </mxCell>
        <mxCell id="8wQrLvHrDY75lWzlRCcC-14" value="ens0" style="rounded=0;whiteSpace=wrap;html=1;strokeColor=#d79b00;align=center;rotation=0;fillColor=#ffe6cc;" vertex="1" parent="1">
          <mxGeometry x="468" y="225" width="60" height="25" as="geometry" />
        </mxCell>
        <mxCell id="8wQrLvHrDY75lWzlRCcC-15" style="edgeStyle=orthogonalEdgeStyle;rounded=0;orthogonalLoop=1;jettySize=auto;html=1;exitX=0.5;exitY=1;exitDx=0;exitDy=0;entryX=0.5;entryY=0;entryDx=0;entryDy=0;startArrow=none;startFill=0;endArrow=none;endFill=0;" edge="1" parent="1" source="8wQrLvHrDY75lWzlRCcC-16" target="8wQrLvHrDY75lWzlRCcC-17">
          <mxGeometry relative="1" as="geometry" />
        </mxCell>
        <mxCell id="8wQrLvHrDY75lWzlRCcC-16" value="eth0" style="rounded=0;whiteSpace=wrap;html=1;fillColor=#ffe6cc;strokeColor=#d79b00;shadow=0;" vertex="1" parent="1">
          <mxGeometry x="453" y="130" width="75" height="20" as="geometry" />
        </mxCell>
        <mxCell id="8wQrLvHrDY75lWzlRCcC-17" value="veth0" style="rounded=0;whiteSpace=wrap;html=1;shadow=0;strokeColor=#d79b00;align=center;fillColor=#ffe6cc;" vertex="1" parent="1">
          <mxGeometry x="453" y="150" width="74.75" height="20" as="geometry" />
        </mxCell>
        <mxCell id="8wQrLvHrDY75lWzlRCcC-18" value="Pod 2" style="text;html=1;strokeColor=none;fillColor=none;align=center;verticalAlign=middle;whiteSpace=wrap;rounded=0;shadow=0;" vertex="1" parent="1">
          <mxGeometry x="418.5" y="65" width="60" height="30" as="geometry" />
        </mxCell>
        <mxCell id="8wQrLvHrDY75lWzlRCcC-19" value="" style="shape=image;verticalLabelPosition=bottom;labelBackgroundColor=#ffffff;verticalAlign=top;aspect=fixed;imageAspect=0;image=data:image/png,iVBORw0KGgoAAAANSUhEUgAAAOEAAADhCAMAAAAJbSJIAAAAz1BMVEX///8AO0nX1tYAsa3z8/P7+/usq6v39/cAq6cArqoALj4AOEcANEPm5eWhoKCZp6wbR1TAv8CgrLFddX0AJTfn7O3GxsYAtrJSwLw0vbgALz8AHzPw+vrj4+MTurZDv7qFy8Xk9fV1x8Ka0coAKTu95uXp9/eU19WG1dOAycOo3t1ew75sxcHN7Ou04+HU7+61tLSTkpKf2teQn6XR0NG8xsk6W2YAECrEzdBvhItZcnsoT1tBYGpyzst80s6k19OLiYqwu799kJZ3ipEAACBFzAQBAAAPxElEQVR4nO1dC1vaTBMNl4hcvBaEcAsggsrNFmu1Vfvafv//N307M5tkN9kkSDEbfHKePgphs5mzO3tm9kI1jAwZMmTIkCFDhgxboVQyTd02fCBM4Fc8KpZ0G/JRKHFmvV7xc/ajR6uYb3xCimYRfnZfb/FN/qj02TgSoaty+bDVhVdH+c/lqdSBxsthoVAoFxbwusS6UatNOwVJzLBZLiAOr/HqJxIcIvINOrBQBpZlawhXGp/EU7nEtNBD+0NO9BMJjisxjnuSsx7O8PrR/nsqScyrIDGy4BT3XHBEieFhAiD06J4LjiQxt8IHXRu70ZrAm/0VHFFiZIIM008gOOShi0KZYgT3SRcrLjj4Zi8FR5SY8oL95j7pYb8Fh0tM35UYJi7l8lIutM+CQ8be4lg7/IaXujbz1Be52N4KjpTFNIfOZSYuwjv3GitziJ27P4IjSozUawuvR12sqNgc3+yJp5LEXJPEXMmfNWFU+kjMSXBWeG++kXrBMUliLOwZuyt91m2VC2UveXOwJMGZ4pvUd6NCYlyA35ZvWRjkZFxMbIyZ9h4IDkmMOSOJWckfTnlIZF5Z9nUuFxyKJqUUC06oxBikrPzashwcoPshOFESgx7qBPyJFQyNXHCaXHDSmOGQxEyUEoMe2heStmt47wuNaRccGjpLkhifkgge6gD69NA33ZBaJ22rjXy1UC0xkoc6gISNTyw8vJY9D0+X4JDErJQS42qoH3C9IDXGFYZ+t4oUeSoZci0ovgeFhzqAFhEdGgZnSxacdGQ4XGJ41PZJjNJDXTCvdkUJ5x5sInVb9oaymYpu5BIjCqEH9NCh4i4OlvzwYYfzR3yVMsHhEiNmzx4iPNQBJLDQc+ChltP/YkjVLTiSxMx9H64iPdQBrG/YLXkdZ5EawaFH07LZoZ+LasKrwhVt10hJkJPa4u36BIckpmvTjpKPywYe6gCiYNkfGrng4PTEzPe0eKq4IVH2qyhGglgPBUALlcvBQcynmPr2U0WJKZSnrhISpoq8U40F3okN4ptOahYcU5AYGC44XXh1PtzcQ695woO3tBTBtOBUm7DgEEEuMXPXVuq2zTQUgFGetwuERv/6hrRcl0+UYslwJcbdkKBFCtyI2UhDHQ913sEOlX/pnwtOGRzYPOslKKnsURN6tsCF5HP2bg918aLI0fmyOdR4cZ/cKRw4mjZFhjKXbyiLhXd7qIMrd3VYwDUOBTZE7896iTEEWbsOxmnWCxDaXtU3yWA+HVjqMK7LQQef2C7Du+Tc1GMoRWqzRaHNr4kKBDzU4L3qT/2uaDBASn93l9fAsFDwZvQU5ZcKTfRDtUuDuYN/YYNm/eQq5tcEpYYzbDbhX5lPmRwNnVgKTZSwgI4OeKhCgocWPoB84u744ijpcWh1bWZBs4AJGwgpdzHVdqgA1bKG0kNvsRHLlOvcfb1LMHUjhk0LFBUoFijtcl0MHS5EUVUaqvRQc4Z193EUHH09vrtPrgsFhsaqid0oR0Z1lyAwL9jEQxdUMY3WCySYZMD3GLIIAZY0Cy25CM4OV4E7IdGzN/HQa+4c+LjjrwdnyU4SkWGTMzSWSLHpW6NRTheG0IO+iyoPnVjeADfy0IEJT/RlhrI9HiB/82+H0kWxoMpDqc0K1GZ30IFJz518DNFlwSTf+FJNF3wXlR46K3gS0zg+vrvoJX66P8CQ6ULT0wUXyukC5NLOxYXCQ1diVRcaPBQQZMgbvtn3icuLuEooXQS5UXnolEY1ScwBeeiu7Y+HiiGLz9j2QR0JZth0ET3UtwIl5hBG7yt6qK5FqABDJjhNheAoc1Bafgp6qH6J4VAzdASn6esylS/S9NJ/9UXw9OLx8cFFXtcXiMIYOoLjS8oU26HdFs4ZpIurviAx95okhiOUIUsmm/1+v+lbScT1DXHE4ewCL3oUpqz3GEc6AHZAWYy25fxwhkxw+kCx6ROcb9J2KPhtYSiFxq6NTdPCjC6vT2I4iGFfybBr95Gjb6I/9E4KeRrqXbyCDmR3uTOle81bTuEMl2gpeqovm3nh26HSqHyh40Mv7l3UML0zzVujnKEd/ARNbVpkrU9w8KTQYkoe6l1kQ9IiD6VuTMe2ITDsBxmuiNmLIzi+7V9Y3yj7o3yXiPWZxKzEhtG7wR3CcCp0wi299kX0OYuC/rgxw4I0aXwRGkbrOQVgOPUzpM5wFWZIrjcTO+I2uIt2Rf3mTC6XQsPo2jYEqBheMeWx+uI8+BqvCIIzCx4SojKWx3piswtWc6b5nAIxtESGr01LNpVh0Udr+UxpGJz0D4mOnLVOsaa++zVMbXmpxHBlKUzFMQbW4hi7DRyBYmPVgo/9i3K8Mq1fUkCGluUuPn3ro6n+SZIBGQ4nEfRQTr8VXFg1X6hhNAqOzJCbOlPuVgxtCzkGPHRB1/1njAjLvte7Wr6kIDFkptq21fcvq7m4Zu7MCvhmSnjVsoLrjYRJCyt9oa9hJi84xNBGr7tG++0wUw3eBLYlNsGwhZdeIgyf9qGEpUlw4HHfkCFzQjAkesvQfMFCM3fELeG9bUXvpK6oaj1nhpGhzRhyUxUSI0MqR4TtWfjejREsV0zWUx2Gr3ar1bLVEiNjOIOiFkSAlc1eyk4bhiUVdQXn36x+D4hha3NTDRi30Bqt1Tf8HTVuBUywYexX6L5GggcViGGLsJmpDAswtkU/Xje2dYo3tECIz/LFrazdBh7D63c0a3dE1rbsjQ5rcKzoHvbqPuE9YGSo3CIMxxIpxkqMjAU2StJnMUogGGjtRoefXDDBsdVZTChu6Tns1VmCZzHwYCJr29nsfR7HsIyNLBK6c/aQWWsEcn2cYB+aOCC6I+/pHwRsxVkLWzF/nOCZKKPYw1+38PxZK+b0zPaYIj8aCUdfD5IMF+bRPSr3cIYU3zm0NoRU+cXXg4skzyYapaOLPL7AZp7N3yc4G0F0ENhITHgR3Cwd3V/gAxeM33zWep+AxKM7YvXOZjfuWYXkV/lLjfzZEbdlzjgOdvp83m4k1LCRqGOV3yz2Lu7x1S1SnG2cv8VjijWS7zf0bSQyT81fkODM0aLfO6qYV0cpva6zCgToRoob1Oij9+VjIVhCXfMZSoz2jUSz6AkOmvXvgtMd0LDWfVbBhSc4N0hx+o/WrOZYDUnMmcazCh48wVnOR6PRfP5PgvMb6xjRSqnWswoCBMEZoX3bC86EKiCJ0XxWQYInOJdo4c2WgnMFd4/mgsRo91AHguCQkdsIjjnF5kmPxMjwBGcAFEeX77ZthffNPYnRfFYhAPBUesUE5+ZmNHpnLv57BHfdcIlheXZKvqkuwCz1+KshGHszes/kfzLAW0ij0iQxMlybzEu0d7Dx5P8Kyt+M0igxEgSjFoLJsZAaJH0SI0Bs9u7gZjBgbreBpasbLCpKTEoJGrJjLUcDZvggVnCoXKolxoVv6AyhbwYxgjOBvh7c8DTov7RKDIdfHMzfaP1lhOAsoMTgho9XU/uBvRgEbZMJBOBvAvM40a/6vh+K1p9cDgQn9GE4wA+9DM9M8vt320DpX0ukoRKcqxv/J/vJkPfUwJ+Ld7F3B1I42VOGbLQNLi8vB7LgLAbs4mAgj9B9ZQh0gOLAm/wrSe8zQxAcYOSExiG9DUwi95ghCM4lACf/V/Q6KD57zZD1G4ANvO5vfKXKWPebIRt7xAx/XiqTgD1nyATn0oU6kdt7hkxwCGHrVPvPkImMWmI4PgNDJjjL8FKfgmEkMobakTGMRcZQOzKGscgYakfGMBYZQ+3IGMYiY6gdGcNYZAy1I2MYi4yhdmQMY6GToWmW4vHP39mB/0e3GP8c8wNaAWrdAP/8nI2eUmrs/mB7cl9O3Qw7/+p66g6AmLv+jldIFzYe307W6/X59wS/Fchxd7/bTlQwNL8/5erjcaXdblfG9fHDuhcsI+Dx5OQkuoRRZEVO8jGWnLMyb+z3rjU3wLDxpzKuVXMequ3Ow1tEDSedyjgX7ViNH5VK5yTGkty4Uv/Jfh+ffSjD0t9O22HG4Lwcnz6G1nBSyeVqz5EPadRzucp5jCWn1Vzti/HRDN/axK9Wqddzvx5+1TrjNtKsdp7CagCGufE66iHpYfjUATrVyvjnGx9Zpcf1r3oNOLZPG+oakGGu8z3iIalh+Iy2Vmoncsf2njo1JK6mSAxz45AGAKSF4QN4aLX+R2Hhcz18rHGG1dPwh6SE4TMQrOXUwn9er1ZCQicyZN7d/hL6kHQw/DOGwfYQVnmvE6amwLD6wCjWQzmkguFjB3rwIb5gAMBw3IBe7IQF9VQwhNhXPd2mamBYL+U7EEHDcsAUMFzDYKrHJF9qIMMiG6nhPpAChiUYhOM4G9TgDI0n8FaFEBupYAhdWP21XQ0OQ+MXDEVlBpsChjAK6+GpZyRchg1whLoq8Otn+Fjfvgs9hqjHSrXSz/BvbQMLwuAxNNasF9s/g0X0M8Rgtu2CjcDQ+Mmaqh6cCGpn2ADvigj20RAZmthWgQGtneF3cK7ICV4URIZGD0Z02+8O2hmesJx7HDW/i4TE0HjrKAK/doZPtW3zGYDMEAN/5a9cRDtD0Ifx1ouUPobGA7SXHPi1M4SpT23rGvwMixVQG8kltDNk6VY1t3UNfoYU+HOilZ+NobGGaYYY+LUzfIY1iK1rDTI0frbl9UXtDL/UAja+AwqG/sCvneGf9g6jBQICv7C+qJ3hOcxdo7YmIqFiiIHfm61oZ/jIsraaena+AZQMjb+szoqzE6CdYQmSya3FVM2QAj9npZ0hhvzOtgMxhGGx7a0v6me4ZlLT3tZNQxgatL6IyaB+hj1cDt6y3jCGxom72aGfIbppJW6TNgShDI0vbb6+mAKG3zF+bTe9CGcIRuPGYgoYoi218M2jKEQwdNYX08AQO7G+VdSPYGh8x/XFVDDEWXD45lEUohjinl37SykNDDF8VcfhFEP7N5Kh8QzrB382WY/98B1S3ECshi5IrX/8DfkkmmEJzuaAf+hnaJx38EyFMvA3nsehpy2iGRr5Op3JSQFDY40UK4rDQesxjtLwsxhRs8vzemoYsl7E4zT1X2/i1d6fMZ62qIecGYpjiOuLKWFoPNbadMhr/Lx+y/d6vce3v6d1utYJWxSPZYgbiylhaJToVBSszI/rDOMKP8Q3Pg1V2XiGjXE1NQyZMDzjASgJ1XFUzhrPEHU6NQwZx6dKve0dS6xVOr/Oox65/lGv/y9mHYuV+RGX2Nc69U4Cpy8Jj+vnHHppvXL6dB5xYA2AJ/3jHgOn8OOLYJlEGOIDG0xpEvy7IS52zjBt32Mp7voUtHm0y9p2gINd/8UZs3GfTxEujo93/vfJSkf3dwfpwd1ZfteD3ywd9XT3nIiP+G9qzVIxPYiPKhkyZMiQIcPm+D8Zv+2zC+rfoQAAAABJRU5ErkJggg==;imageBorder=default;imageBackground=#FFB570;" vertex="1" parent="1">
          <mxGeometry x="486.88" y="195" width="26.25" height="26.25" as="geometry" />
        </mxCell>
        <mxCell id="8wQrLvHrDY75lWzlRCcC-20" value="bridge" style="rounded=0;whiteSpace=wrap;html=1;strokeColor=#d79b00;fillColor=#FFB570;" vertex="1" parent="1">
          <mxGeometry x="433.5" y="170" width="181.5" height="20" as="geometry" />
        </mxCell>
        <mxCell id="8wQrLvHrDY75lWzlRCcC-21" value="network" style="ellipse;shape=cloud;whiteSpace=wrap;html=1;align=center;verticalAlign=middle;" vertex="1" parent="1">
          <mxGeometry x="325.25" y="256" width="120" height="50" as="geometry" />
        </mxCell>
        <mxCell id="8wQrLvHrDY75lWzlRCcC-22" value="" style="endArrow=none;html=1;rounded=0;edgeStyle=orthogonalEdgeStyle;curved=1;entryX=0.5;entryY=1;entryDx=0;entryDy=0;exitX=0.5;exitY=1;exitDx=0;exitDy=0;fillColor=#e51400;strokeColor=#FF0000;strokeWidth=3;" edge="1" parent="1" source="8wQrLvHrDY75lWzlRCcC-6" target="8wQrLvHrDY75lWzlRCcC-23">
          <mxGeometry width="50" height="50" relative="1" as="geometry">
            <mxPoint x="480.25" y="380" as="sourcePoint" />
            <mxPoint x="478.125" y="120" as="targetPoint" />
            <Array as="points">
              <mxPoint x="290" y="115" />
              <mxPoint x="290" y="290" />
              <mxPoint x="500" y="290" />
              <mxPoint x="500" y="115" />
            </Array>
          </mxGeometry>
        </mxCell>
        <mxCell id="8wQrLvHrDY75lWzlRCcC-23" value="sidecar/app" style="rounded=0;whiteSpace=wrap;html=1;strokeColor=#82b366;align=center;fillColor=#d5e8d4;" vertex="1" parent="1">
          <mxGeometry x="453" y="95" width="70" height="20" as="geometry" />
        </mxCell>
      </root>
    </mxGraphModel>
  </diagram>
</mxfile>
